<mxfile host="drawio-plugin" modified="2023-05-14T20:19:31.885Z" agent="5.0 (Windows NT 6.2; Win64; x64) AppleWebKit/537.36 (KHTML, like Gecko) Chrome/97.0.4692.45 Safari/537.36" etag="j24E-yNA_nPtDBKSoD3u" version="20.5.3" type="embed"><diagram name="Page-1" id="2YBvvXClWsGukQMizWep"><mxGraphModel dx="837" dy="563" grid="1" gridSize="10" guides="1" tooltips="1" connect="1" arrows="1" fold="1" page="1" pageScale="1" pageWidth="1000" pageHeight="1500" math="0" shadow="0"><root><mxCell id="0"/><mxCell id="1" parent="0"/><mxCell id="aM9ryv3xv72pqoxQDRHE-1" value="HR manager" style="shape=umlLifeline;perimeter=lifelinePerimeter;whiteSpace=wrap;html=1;container=0;dropTarget=0;collapsible=0;recursiveResize=0;outlineConnect=0;portConstraint=eastwest;newEdgeStyle={&quot;edgeStyle&quot;:&quot;elbowEdgeStyle&quot;,&quot;elbow&quot;:&quot;vertical&quot;,&quot;curved&quot;:0,&quot;rounded&quot;:0};" parent="1" vertex="1"><mxGeometry x="5" y="40" width="100" height="1450" as="geometry"/></mxCell><mxCell id="aM9ryv3xv72pqoxQDRHE-5" value="Shift Controller" style="shape=umlLifeline;perimeter=lifelinePerimeter;whiteSpace=wrap;html=1;container=0;dropTarget=0;collapsible=0;recursiveResize=0;outlineConnect=0;portConstraint=eastwest;newEdgeStyle={&quot;edgeStyle&quot;:&quot;elbowEdgeStyle&quot;,&quot;elbow&quot;:&quot;vertical&quot;,&quot;curved&quot;:0,&quot;rounded&quot;:0};" parent="1" vertex="1"><mxGeometry x="132.5" y="40" width="100" height="1450" as="geometry"/></mxCell><mxCell id="aM9ryv3xv72pqoxQDRHE-6" value="" style="html=1;points=[];perimeter=orthogonalPerimeter;outlineConnect=0;targetShapes=umlLifeline;portConstraint=eastwest;newEdgeStyle={&quot;edgeStyle&quot;:&quot;elbowEdgeStyle&quot;,&quot;elbow&quot;:&quot;vertical&quot;,&quot;curved&quot;:0,&quot;rounded&quot;:0};" parent="aM9ryv3xv72pqoxQDRHE-5" vertex="1"><mxGeometry x="45" y="80" width="10" height="1350" as="geometry"/></mxCell><mxCell id="X5tjyOHNMGWAjBXiOwTz-14" value="" style="html=1;points=[];perimeter=orthogonalPerimeter;outlineConnect=0;targetShapes=umlLifeline;portConstraint=eastwest;newEdgeStyle={&quot;edgeStyle&quot;:&quot;elbowEdgeStyle&quot;,&quot;elbow&quot;:&quot;vertical&quot;,&quot;curved&quot;:0,&quot;rounded&quot;:0};" parent="aM9ryv3xv72pqoxQDRHE-5" vertex="1"><mxGeometry x="40" y="390" width="20" height="510" as="geometry"/></mxCell><mxCell id="ba8maUs_KR-QxSfLJsmI-2" value="" style="edgeStyle=segmentEdgeStyle;endArrow=classic;html=1;curved=0;rounded=0;endSize=8;startSize=8;" parent="aM9ryv3xv72pqoxQDRHE-5" source="aM9ryv3xv72pqoxQDRHE-6" target="X5tjyOHNMGWAjBXiOwTz-14" edge="1"><mxGeometry width="50" height="50" relative="1" as="geometry"><mxPoint x="52.5" y="385" as="sourcePoint"/><mxPoint x="52.5" y="415" as="targetPoint"/><Array as="points"><mxPoint x="98" y="380"/><mxPoint x="98" y="400"/></Array></mxGeometry></mxCell><mxCell id="aM9ryv3xv72pqoxQDRHE-7" value="1:addScheduleDriver&lt;br&gt;(employeeId,shiftId)" style="html=1;verticalAlign=bottom;endArrow=block;edgeStyle=elbowEdgeStyle;elbow=vertical;curved=0;rounded=0;" parent="1" target="aM9ryv3xv72pqoxQDRHE-6" edge="1"><mxGeometry x="-0.1304" relative="1" as="geometry"><mxPoint x="60" y="130" as="sourcePoint"/><Array as="points"><mxPoint x="145" y="130"/></Array><mxPoint x="170" y="130" as="targetPoint"/><mxPoint as="offset"/></mxGeometry></mxCell><mxCell id="X5tjyOHNMGWAjBXiOwTz-1" value="Employee&lt;br&gt;Controller" style="shape=umlLifeline;perimeter=lifelinePerimeter;whiteSpace=wrap;html=1;container=0;dropTarget=0;collapsible=0;recursiveResize=0;outlineConnect=0;portConstraint=eastwest;newEdgeStyle={&quot;edgeStyle&quot;:&quot;elbowEdgeStyle&quot;,&quot;elbow&quot;:&quot;vertical&quot;,&quot;curved&quot;:0,&quot;rounded&quot;:0};" parent="1" vertex="1"><mxGeometry x="260" y="40" width="100" height="1450" as="geometry"/></mxCell><mxCell id="X5tjyOHNMGWAjBXiOwTz-2" value="" style="html=1;points=[];perimeter=orthogonalPerimeter;outlineConnect=0;targetShapes=umlLifeline;portConstraint=eastwest;newEdgeStyle={&quot;edgeStyle&quot;:&quot;elbowEdgeStyle&quot;,&quot;elbow&quot;:&quot;vertical&quot;,&quot;curved&quot;:0,&quot;rounded&quot;:0};" parent="X5tjyOHNMGWAjBXiOwTz-1" vertex="1"><mxGeometry x="45" y="80" width="10" height="80" as="geometry"/></mxCell><mxCell id="X5tjyOHNMGWAjBXiOwTz-6" value="" style="html=1;points=[];perimeter=orthogonalPerimeter;outlineConnect=0;targetShapes=umlLifeline;portConstraint=eastwest;newEdgeStyle={&quot;edgeStyle&quot;:&quot;elbowEdgeStyle&quot;,&quot;elbow&quot;:&quot;vertical&quot;,&quot;curved&quot;:0,&quot;rounded&quot;:0};" parent="X5tjyOHNMGWAjBXiOwTz-1" vertex="1"><mxGeometry x="45" y="170" width="10" height="30" as="geometry"/></mxCell><mxCell id="X5tjyOHNMGWAjBXiOwTz-21" value="" style="html=1;points=[];perimeter=orthogonalPerimeter;outlineConnect=0;targetShapes=umlLifeline;portConstraint=eastwest;newEdgeStyle={&quot;edgeStyle&quot;:&quot;elbowEdgeStyle&quot;,&quot;elbow&quot;:&quot;vertical&quot;,&quot;curved&quot;:0,&quot;rounded&quot;:0};" parent="X5tjyOHNMGWAjBXiOwTz-1" vertex="1"><mxGeometry x="45" y="340" width="10" height="30" as="geometry"/></mxCell><mxCell id="X5tjyOHNMGWAjBXiOwTz-42" value="" style="html=1;points=[];perimeter=orthogonalPerimeter;outlineConnect=0;targetShapes=umlLifeline;portConstraint=eastwest;newEdgeStyle={&quot;edgeStyle&quot;:&quot;elbowEdgeStyle&quot;,&quot;elbow&quot;:&quot;vertical&quot;,&quot;curved&quot;:0,&quot;rounded&quot;:0};" parent="X5tjyOHNMGWAjBXiOwTz-1" vertex="1"><mxGeometry x="45" y="480" width="10" height="30" as="geometry"/></mxCell><mxCell id="X5tjyOHNMGWAjBXiOwTz-46" value="" style="html=1;points=[];perimeter=orthogonalPerimeter;outlineConnect=0;targetShapes=umlLifeline;portConstraint=eastwest;newEdgeStyle={&quot;edgeStyle&quot;:&quot;elbowEdgeStyle&quot;,&quot;elbow&quot;:&quot;vertical&quot;,&quot;curved&quot;:0,&quot;rounded&quot;:0};" parent="X5tjyOHNMGWAjBXiOwTz-1" vertex="1"><mxGeometry x="45" y="540" width="10" height="50" as="geometry"/></mxCell><mxCell id="X5tjyOHNMGWAjBXiOwTz-4" value="1.1:getEmployees()" style="html=1;verticalAlign=bottom;endArrow=block;edgeStyle=elbowEdgeStyle;elbow=vertical;curved=0;rounded=0;" parent="1" source="aM9ryv3xv72pqoxQDRHE-6" target="X5tjyOHNMGWAjBXiOwTz-2" edge="1"><mxGeometry x="-0.25" relative="1" as="geometry"><mxPoint x="190" y="140" as="sourcePoint"/><Array as="points"><mxPoint x="260" y="130"/><mxPoint x="290" y="140"/></Array><mxPoint x="350" y="140" as="targetPoint"/><mxPoint as="offset"/></mxGeometry></mxCell><mxCell id="X5tjyOHNMGWAjBXiOwTz-8" value="" style="html=1;verticalAlign=bottom;endArrow=open;dashed=1;endSize=8;edgeStyle=elbowEdgeStyle;elbow=vertical;curved=0;rounded=0;" parent="1" source="X5tjyOHNMGWAjBXiOwTz-6" target="aM9ryv3xv72pqoxQDRHE-6" edge="1"><mxGeometry relative="1" as="geometry"><mxPoint x="230" y="240" as="targetPoint"/><Array as="points"><mxPoint x="280" y="230"/><mxPoint x="250" y="220"/><mxPoint x="250" y="210"/></Array><mxPoint x="350" y="240" as="sourcePoint"/></mxGeometry></mxCell><mxCell id="X5tjyOHNMGWAjBXiOwTz-9" value="Employee" style="shape=umlLifeline;perimeter=lifelinePerimeter;whiteSpace=wrap;html=1;container=0;dropTarget=0;collapsible=0;recursiveResize=0;outlineConnect=0;portConstraint=eastwest;newEdgeStyle={&quot;edgeStyle&quot;:&quot;elbowEdgeStyle&quot;,&quot;elbow&quot;:&quot;vertical&quot;,&quot;curved&quot;:0,&quot;rounded&quot;:0};" parent="1" vertex="1"><mxGeometry x="375" y="40" width="100" height="1450" as="geometry"/></mxCell><mxCell id="X5tjyOHNMGWAjBXiOwTz-11" value="" style="html=1;points=[];perimeter=orthogonalPerimeter;outlineConnect=0;targetShapes=umlLifeline;portConstraint=eastwest;newEdgeStyle={&quot;edgeStyle&quot;:&quot;elbowEdgeStyle&quot;,&quot;elbow&quot;:&quot;vertical&quot;,&quot;curved&quot;:0,&quot;rounded&quot;:0};" parent="X5tjyOHNMGWAjBXiOwTz-9" vertex="1"><mxGeometry x="45" y="210" width="10" height="60" as="geometry"/></mxCell><mxCell id="X5tjyOHNMGWAjBXiOwTz-50" value="" style="html=1;points=[];perimeter=orthogonalPerimeter;outlineConnect=0;targetShapes=umlLifeline;portConstraint=eastwest;newEdgeStyle={&quot;edgeStyle&quot;:&quot;elbowEdgeStyle&quot;,&quot;elbow&quot;:&quot;vertical&quot;,&quot;curved&quot;:0,&quot;rounded&quot;:0};" parent="X5tjyOHNMGWAjBXiOwTz-9" vertex="1"><mxGeometry x="45" y="590" width="10" height="60" as="geometry"/></mxCell><mxCell id="X5tjyOHNMGWAjBXiOwTz-51" value="" style="html=1;points=[];perimeter=orthogonalPerimeter;outlineConnect=0;targetShapes=umlLifeline;portConstraint=eastwest;newEdgeStyle={&quot;edgeStyle&quot;:&quot;elbowEdgeStyle&quot;,&quot;elbow&quot;:&quot;vertical&quot;,&quot;curved&quot;:0,&quot;rounded&quot;:0};" parent="X5tjyOHNMGWAjBXiOwTz-9" vertex="1"><mxGeometry x="45" y="670" width="10" height="60" as="geometry"/></mxCell><mxCell id="X5tjyOHNMGWAjBXiOwTz-67" value="" style="html=1;points=[];perimeter=orthogonalPerimeter;outlineConnect=0;targetShapes=umlLifeline;portConstraint=eastwest;newEdgeStyle={&quot;edgeStyle&quot;:&quot;elbowEdgeStyle&quot;,&quot;elbow&quot;:&quot;vertical&quot;,&quot;curved&quot;:0,&quot;rounded&quot;:0};" parent="X5tjyOHNMGWAjBXiOwTz-9" vertex="1"><mxGeometry x="45" y="800" width="10" height="60" as="geometry"/></mxCell><mxCell id="X5tjyOHNMGWAjBXiOwTz-12" value="Employee&lt;br&gt;Constraint" style="shape=umlLifeline;perimeter=lifelinePerimeter;whiteSpace=wrap;html=1;container=0;dropTarget=0;collapsible=0;recursiveResize=0;outlineConnect=0;portConstraint=eastwest;newEdgeStyle={&quot;edgeStyle&quot;:&quot;elbowEdgeStyle&quot;,&quot;elbow&quot;:&quot;vertical&quot;,&quot;curved&quot;:0,&quot;rounded&quot;:0};" parent="1" vertex="1"><mxGeometry x="500" y="40" width="100" height="1450" as="geometry"/></mxCell><mxCell id="X5tjyOHNMGWAjBXiOwTz-62" value="" style="html=1;points=[];perimeter=orthogonalPerimeter;outlineConnect=0;targetShapes=umlLifeline;portConstraint=eastwest;newEdgeStyle={&quot;edgeStyle&quot;:&quot;elbowEdgeStyle&quot;,&quot;elbow&quot;:&quot;vertical&quot;,&quot;curved&quot;:0,&quot;rounded&quot;:0};" parent="X5tjyOHNMGWAjBXiOwTz-12" vertex="1"><mxGeometry x="45" y="740" width="10" height="60" as="geometry"/></mxCell><mxCell id="X5tjyOHNMGWAjBXiOwTz-15" value="DriverShift" style="shape=umlLifeline;perimeter=lifelinePerimeter;whiteSpace=wrap;html=1;container=0;dropTarget=0;collapsible=0;recursiveResize=0;outlineConnect=0;portConstraint=eastwest;newEdgeStyle={&quot;edgeStyle&quot;:&quot;elbowEdgeStyle&quot;,&quot;elbow&quot;:&quot;vertical&quot;,&quot;curved&quot;:0,&quot;rounded&quot;:0};" parent="1" vertex="1"><mxGeometry x="620" y="40" width="100" height="1450" as="geometry"/></mxCell><mxCell id="X5tjyOHNMGWAjBXiOwTz-16" value="" style="html=1;points=[];perimeter=orthogonalPerimeter;outlineConnect=0;targetShapes=umlLifeline;portConstraint=eastwest;newEdgeStyle={&quot;edgeStyle&quot;:&quot;elbowEdgeStyle&quot;,&quot;elbow&quot;:&quot;vertical&quot;,&quot;curved&quot;:0,&quot;rounded&quot;:0};" parent="X5tjyOHNMGWAjBXiOwTz-15" vertex="1"><mxGeometry x="45" y="980" width="10" height="60" as="geometry"/></mxCell><mxCell id="X5tjyOHNMGWAjBXiOwTz-77" value="" style="html=1;points=[];perimeter=orthogonalPerimeter;outlineConnect=0;targetShapes=umlLifeline;portConstraint=eastwest;newEdgeStyle={&quot;edgeStyle&quot;:&quot;elbowEdgeStyle&quot;,&quot;elbow&quot;:&quot;vertical&quot;,&quot;curved&quot;:0,&quot;rounded&quot;:0};" parent="X5tjyOHNMGWAjBXiOwTz-15" vertex="1"><mxGeometry x="45" y="1120" width="10" height="30" as="geometry"/></mxCell><mxCell id="X5tjyOHNMGWAjBXiOwTz-81" value="" style="html=1;points=[];perimeter=orthogonalPerimeter;outlineConnect=0;targetShapes=umlLifeline;portConstraint=eastwest;newEdgeStyle={&quot;edgeStyle&quot;:&quot;elbowEdgeStyle&quot;,&quot;elbow&quot;:&quot;vertical&quot;,&quot;curved&quot;:0,&quot;rounded&quot;:0};" parent="X5tjyOHNMGWAjBXiOwTz-15" vertex="1"><mxGeometry x="45" y="1160" width="10" height="30" as="geometry"/></mxCell><mxCell id="X5tjyOHNMGWAjBXiOwTz-83" value="" style="html=1;points=[];perimeter=orthogonalPerimeter;outlineConnect=0;targetShapes=umlLifeline;portConstraint=eastwest;newEdgeStyle={&quot;edgeStyle&quot;:&quot;elbowEdgeStyle&quot;,&quot;elbow&quot;:&quot;vertical&quot;,&quot;curved&quot;:0,&quot;rounded&quot;:0};" parent="X5tjyOHNMGWAjBXiOwTz-15" vertex="1"><mxGeometry x="45" y="1280" width="10" height="30" as="geometry"/></mxCell><mxCell id="X5tjyOHNMGWAjBXiOwTz-18" value="1.4:getType()" style="html=1;verticalAlign=bottom;endArrow=block;edgeStyle=elbowEdgeStyle;elbow=vertical;curved=0;rounded=0;" parent="1" source="aM9ryv3xv72pqoxQDRHE-6" target="X5tjyOHNMGWAjBXiOwTz-11" edge="1"><mxGeometry x="-0.1064" relative="1" as="geometry"><mxPoint x="190" y="295" as="sourcePoint"/><Array as="points"><mxPoint x="270" y="260"/><mxPoint x="340" y="250"/><mxPoint x="350" y="240"/><mxPoint x="330" y="340"/><mxPoint x="300" y="330"/></Array><mxPoint x="420" y="295" as="targetPoint"/><mxPoint as="offset"/></mxGeometry></mxCell><mxCell id="X5tjyOHNMGWAjBXiOwTz-20" value="1.7:getEmployees()" style="html=1;verticalAlign=bottom;endArrow=block;edgeStyle=elbowEdgeStyle;elbow=vertical;curved=0;rounded=0;" parent="1" source="aM9ryv3xv72pqoxQDRHE-6" target="X5tjyOHNMGWAjBXiOwTz-21" edge="1"><mxGeometry x="-0.1167" relative="1" as="geometry"><mxPoint x="190" y="400" as="sourcePoint"/><Array as="points"><mxPoint x="280" y="390"/><mxPoint x="250" y="380"/><mxPoint x="270" y="370"/><mxPoint x="250" y="400"/></Array><mxPoint x="300" y="400" as="targetPoint"/><mxPoint as="offset"/></mxGeometry></mxCell><mxCell id="X5tjyOHNMGWAjBXiOwTz-23" value="" style="html=1;verticalAlign=bottom;endArrow=open;dashed=1;endSize=8;edgeStyle=elbowEdgeStyle;elbow=vertical;curved=0;rounded=0;" parent="1" source="X5tjyOHNMGWAjBXiOwTz-21" target="aM9ryv3xv72pqoxQDRHE-6" edge="1"><mxGeometry relative="1" as="geometry"><mxPoint x="190" y="380" as="targetPoint"/><Array as="points"><mxPoint x="260" y="400"/><mxPoint x="280" y="390"/><mxPoint x="230" y="420"/><mxPoint x="250" y="430"/></Array><mxPoint x="300" y="380" as="sourcePoint"/></mxGeometry></mxCell><mxCell id="X5tjyOHNMGWAjBXiOwTz-26" value="&lt;span style=&quot;color: rgb(0, 0, 0); font-family: Helvetica; font-style: normal; font-variant-ligatures: normal; font-variant-caps: normal; font-weight: 400; letter-spacing: normal; orphans: 2; text-align: center; text-indent: 0px; text-transform: none; widows: 2; word-spacing: 0px; -webkit-text-stroke-width: 0px; background-color: rgb(255, 255, 255); text-decoration-thickness: initial; text-decoration-style: initial; text-decoration-color: initial; float: none; display: inline !important;&quot;&gt;&lt;font style=&quot;font-size: 9px;&quot;&gt;1.8:Driver&lt;/font&gt;&lt;/span&gt;" style="text;whiteSpace=wrap;html=1;" parent="1" vertex="1"><mxGeometry x="220" y="390" width="30" height="20" as="geometry"/></mxCell><mxCell id="X5tjyOHNMGWAjBXiOwTz-28" value="loop" style="shape=umlFrame;whiteSpace=wrap;html=1;pointerEvents=0;width=40;height=15;" parent="1" vertex="1"><mxGeometry x="110" y="580" width="470" height="340" as="geometry"/></mxCell><mxCell id="X5tjyOHNMGWAjBXiOwTz-34" value="1.3:getEmployees()" style="html=1;verticalAlign=bottom;endArrow=block;edgeStyle=elbowEdgeStyle;elbow=vertical;curved=0;rounded=0;" parent="1" source="aM9ryv3xv72pqoxQDRHE-6" target="X5tjyOHNMGWAjBXiOwTz-6" edge="1"><mxGeometry x="0.0667" relative="1" as="geometry"><mxPoint x="190" y="260" as="sourcePoint"/><Array as="points"><mxPoint x="280" y="220"/><mxPoint x="260" y="210"/><mxPoint x="270" y="200"/><mxPoint x="250" y="190"/><mxPoint x="290" y="260"/><mxPoint x="310" y="260"/><mxPoint x="260" y="270"/><mxPoint x="295" y="260"/></Array><mxPoint x="300" y="260" as="targetPoint"/><mxPoint as="offset"/></mxGeometry></mxCell><mxCell id="X5tjyOHNMGWAjBXiOwTz-41" value="1.9.2:getEmployees()" style="html=1;verticalAlign=bottom;endArrow=block;edgeStyle=elbowEdgeStyle;elbow=vertical;curved=0;rounded=0;" parent="1" target="X5tjyOHNMGWAjBXiOwTz-42" edge="1"><mxGeometry x="-0.04" relative="1" as="geometry"><mxPoint x="190" y="540" as="sourcePoint"/><Array as="points"><mxPoint x="210" y="540"/><mxPoint x="230" y="530"/><mxPoint x="250" y="520"/><mxPoint x="295" y="480"/></Array><mxPoint x="280" y="480" as="targetPoint"/><mxPoint as="offset"/></mxGeometry></mxCell><mxCell id="X5tjyOHNMGWAjBXiOwTz-43" value="" style="html=1;verticalAlign=bottom;endArrow=open;dashed=1;endSize=8;edgeStyle=elbowEdgeStyle;elbow=vertical;curved=0;rounded=0;" parent="1" source="X5tjyOHNMGWAjBXiOwTz-42" target="X5tjyOHNMGWAjBXiOwTz-14" edge="1"><mxGeometry relative="1" as="geometry"><mxPoint x="200" y="550" as="targetPoint"/><Array as="points"><mxPoint x="250" y="550"/><mxPoint x="310" y="505"/></Array><mxPoint x="300" y="505" as="sourcePoint"/></mxGeometry></mxCell><mxCell id="X5tjyOHNMGWAjBXiOwTz-48" value="1.8.3:getEmployees()" style="html=1;verticalAlign=bottom;endArrow=block;edgeStyle=elbowEdgeStyle;elbow=vertical;curved=0;rounded=0;" parent="1" source="X5tjyOHNMGWAjBXiOwTz-14" edge="1"><mxGeometry x="0.0435" relative="1" as="geometry"><mxPoint x="200" y="600" as="sourcePoint"/><Array as="points"><mxPoint x="250" y="600"/><mxPoint x="295" y="550"/></Array><mxPoint x="305" y="600" as="targetPoint"/><mxPoint as="offset"/></mxGeometry></mxCell><mxCell id="X5tjyOHNMGWAjBXiOwTz-49" value="&lt;div style=&quot;text-align: center;&quot;&gt;&lt;span style=&quot;font-size: 11px; background-color: rgb(255, 255, 255);&quot;&gt;&amp;nbsp; &amp;nbsp; &amp;nbsp; 1.8.4:Employee&lt;/span&gt;&lt;/div&gt;" style="text;whiteSpace=wrap;html=1;" parent="1" vertex="1"><mxGeometry x="202.5" y="620" width="110" height="20" as="geometry"/></mxCell><mxCell id="X5tjyOHNMGWAjBXiOwTz-53" value="1.8.4:getConstraints()" style="html=1;verticalAlign=bottom;endArrow=block;edgeStyle=elbowEdgeStyle;elbow=vertical;curved=0;rounded=0;" parent="1" target="X5tjyOHNMGWAjBXiOwTz-50" edge="1"><mxGeometry x="0.3333" relative="1" as="geometry"><mxPoint x="190" y="660" as="sourcePoint"/><Array as="points"><mxPoint x="250" y="660"/><mxPoint x="295" y="620"/></Array><mxPoint x="305" y="660" as="targetPoint"/><mxPoint as="offset"/></mxGeometry></mxCell><mxCell id="X5tjyOHNMGWAjBXiOwTz-54" value="" style="html=1;verticalAlign=bottom;endArrow=open;dashed=1;endSize=8;edgeStyle=elbowEdgeStyle;elbow=vertical;curved=0;rounded=0;" parent="1" target="X5tjyOHNMGWAjBXiOwTz-14" edge="1"><mxGeometry relative="1" as="geometry"><mxPoint x="300" y="680" as="targetPoint"/><Array as="points"><mxPoint x="365" y="680"/></Array><mxPoint x="420" y="680" as="sourcePoint"/></mxGeometry></mxCell><mxCell id="X5tjyOHNMGWAjBXiOwTz-55" value="&lt;div style=&quot;text-align: center;&quot;&gt;&lt;span style=&quot;font-size: 11px; background-color: rgb(255, 255, 255);&quot;&gt;1.8.5: Constraint&lt;/span&gt;&lt;/div&gt;" style="text;whiteSpace=wrap;html=1;" parent="1" vertex="1"><mxGeometry x="320" y="660" width="95" height="20" as="geometry"/></mxCell><mxCell id="X5tjyOHNMGWAjBXiOwTz-56" value="1.8.6:getConstraints()" style="html=1;verticalAlign=bottom;endArrow=block;edgeStyle=elbowEdgeStyle;elbow=vertical;curved=0;rounded=0;" parent="1" source="X5tjyOHNMGWAjBXiOwTz-14" edge="1"><mxGeometry x="0.2593" relative="1" as="geometry"><mxPoint x="200" y="730" as="sourcePoint"/><Array as="points"><mxPoint x="250" y="730"/><mxPoint x="295" y="690"/></Array><mxPoint x="420" y="730" as="targetPoint"/><mxPoint as="offset"/></mxGeometry></mxCell><mxCell id="X5tjyOHNMGWAjBXiOwTz-57" value="" style="html=1;verticalAlign=bottom;endArrow=open;dashed=1;endSize=8;edgeStyle=elbowEdgeStyle;elbow=vertical;curved=0;rounded=0;" parent="1" source="X5tjyOHNMGWAjBXiOwTz-51" target="X5tjyOHNMGWAjBXiOwTz-14" edge="1"><mxGeometry relative="1" as="geometry"><mxPoint x="195" y="760" as="targetPoint"/><Array as="points"><mxPoint x="370" y="760"/></Array><mxPoint x="410" y="760" as="sourcePoint"/></mxGeometry></mxCell><mxCell id="X5tjyOHNMGWAjBXiOwTz-58" value="&lt;div style=&quot;text-align: center;&quot;&gt;&lt;span style=&quot;font-size: 11px; background-color: rgb(255, 255, 255);&quot;&gt;1.8.7:Constraint&lt;/span&gt;&lt;/div&gt;" style="text;whiteSpace=wrap;html=1;" parent="1" vertex="1"><mxGeometry x="330" y="740" width="60" height="20" as="geometry"/></mxCell><mxCell id="X5tjyOHNMGWAjBXiOwTz-63" value="1.8.7:getShiftId()" style="html=1;verticalAlign=bottom;endArrow=block;edgeStyle=elbowEdgeStyle;elbow=vertical;curved=0;rounded=0;" parent="1" source="X5tjyOHNMGWAjBXiOwTz-14" target="X5tjyOHNMGWAjBXiOwTz-62" edge="1"><mxGeometry x="0.4085" relative="1" as="geometry"><mxPoint x="195" y="800" as="sourcePoint"/><Array as="points"><mxPoint x="255" y="800"/><mxPoint x="300" y="760"/></Array><mxPoint x="425" y="800" as="targetPoint"/><mxPoint as="offset"/></mxGeometry></mxCell><mxCell id="X5tjyOHNMGWAjBXiOwTz-64" value="" style="html=1;verticalAlign=bottom;endArrow=open;dashed=1;endSize=8;edgeStyle=elbowEdgeStyle;elbow=vertical;curved=0;rounded=0;" parent="1" source="X5tjyOHNMGWAjBXiOwTz-62" target="X5tjyOHNMGWAjBXiOwTz-14" edge="1"><mxGeometry relative="1" as="geometry"><mxPoint x="310" y="830" as="targetPoint"/><Array as="points"><mxPoint x="490" y="830"/></Array><mxPoint x="540" y="830" as="sourcePoint"/></mxGeometry></mxCell><mxCell id="X5tjyOHNMGWAjBXiOwTz-65" value="&lt;span style=&quot;font-size: 11px; background-color: rgb(255, 255, 255);&quot;&gt;1.8.8:ShiftId&lt;/span&gt;" style="text;whiteSpace=wrap;html=1;" parent="1" vertex="1"><mxGeometry x="337.5" y="810" width="60" height="20" as="geometry"/></mxCell><mxCell id="X5tjyOHNMGWAjBXiOwTz-70" value="1.8.9:isHRManager()" style="html=1;verticalAlign=bottom;endArrow=block;edgeStyle=elbowEdgeStyle;elbow=vertical;curved=0;rounded=0;" parent="1" source="X5tjyOHNMGWAjBXiOwTz-14" target="X5tjyOHNMGWAjBXiOwTz-67" edge="1"><mxGeometry x="0.3043" relative="1" as="geometry"><mxPoint x="195" y="860" as="sourcePoint"/><Array as="points"><mxPoint x="255" y="860"/><mxPoint x="300" y="820"/></Array><mxPoint x="400" y="860" as="targetPoint"/><mxPoint as="offset"/></mxGeometry></mxCell><mxCell id="X5tjyOHNMGWAjBXiOwTz-71" value="" style="html=1;verticalAlign=bottom;endArrow=open;dashed=1;endSize=8;edgeStyle=elbowEdgeStyle;elbow=vertical;curved=0;rounded=0;" parent="1" target="X5tjyOHNMGWAjBXiOwTz-14" edge="1"><mxGeometry relative="1" as="geometry"><mxPoint x="300" y="880" as="targetPoint"/><Array as="points"><mxPoint x="365" y="880"/></Array><mxPoint x="420" y="880" as="sourcePoint"/></mxGeometry></mxCell><mxCell id="X5tjyOHNMGWAjBXiOwTz-72" value="loop" style="shape=umlFrame;whiteSpace=wrap;html=1;pointerEvents=0;width=40;height=15;" parent="1" vertex="1"><mxGeometry x="150" y="700" width="410" height="210" as="geometry"/></mxCell><mxCell id="X5tjyOHNMGWAjBXiOwTz-74" value="1.10:getSchedulesDrivers()" style="html=1;verticalAlign=bottom;endArrow=block;edgeStyle=elbowEdgeStyle;elbow=vertical;curved=0;rounded=0;" parent="1" source="aM9ryv3xv72pqoxQDRHE-6" target="X5tjyOHNMGWAjBXiOwTz-16" edge="1"><mxGeometry x="0.25" relative="1" as="geometry"><mxPoint x="190" y="990" as="sourcePoint"/><Array as="points"><mxPoint x="460" y="1050"/><mxPoint x="400" y="1040"/><mxPoint x="295" y="990"/></Array><mxPoint x="660" y="990" as="targetPoint"/><mxPoint as="offset"/></mxGeometry></mxCell><mxCell id="X5tjyOHNMGWAjBXiOwTz-75" value="" style="html=1;verticalAlign=bottom;endArrow=open;dashed=1;endSize=8;edgeStyle=elbowEdgeStyle;elbow=vertical;curved=0;rounded=0;" parent="1" source="X5tjyOHNMGWAjBXiOwTz-16" target="aM9ryv3xv72pqoxQDRHE-6" edge="1"><mxGeometry relative="1" as="geometry"><mxPoint x="200" y="1020" as="targetPoint"/><Array as="points"><mxPoint x="400" y="1060"/><mxPoint x="270" y="1070"/><mxPoint x="615" y="1020"/></Array><mxPoint x="670" y="1020" as="sourcePoint"/></mxGeometry></mxCell><mxCell id="X5tjyOHNMGWAjBXiOwTz-76" value="" style="html=1;verticalAlign=bottom;endArrow=open;dashed=1;endSize=8;edgeStyle=elbowEdgeStyle;elbow=vertical;curved=0;rounded=0;" parent="1" source="X5tjyOHNMGWAjBXiOwTz-77" target="aM9ryv3xv72pqoxQDRHE-6" edge="1"><mxGeometry relative="1" as="geometry"><mxPoint x="190" y="1170" as="targetPoint"/><Array as="points"><mxPoint x="480" y="1180"/><mxPoint x="390" y="1170"/><mxPoint x="360" y="1140"/></Array><mxPoint x="660" y="1170" as="sourcePoint"/></mxGeometry></mxCell><mxCell id="X5tjyOHNMGWAjBXiOwTz-78" value="1.13:getDriversCount()" style="html=1;verticalAlign=bottom;endArrow=block;edgeStyle=elbowEdgeStyle;elbow=vertical;curved=0;rounded=0;" parent="1" source="aM9ryv3xv72pqoxQDRHE-6" target="X5tjyOHNMGWAjBXiOwTz-77" edge="1"><mxGeometry x="0.2041" relative="1" as="geometry"><mxPoint x="195" y="1120" as="sourcePoint"/><Array as="points"><mxPoint x="600" y="1170"/><mxPoint x="440" y="1160"/><mxPoint x="410" y="1120"/><mxPoint x="305" y="1070"/></Array><mxPoint x="670" y="1120" as="targetPoint"/><mxPoint as="offset"/></mxGeometry></mxCell><mxCell id="X5tjyOHNMGWAjBXiOwTz-79" value="1.15:getSchedulesDrivers()" style="html=1;verticalAlign=bottom;endArrow=block;edgeStyle=elbowEdgeStyle;elbow=vertical;curved=0;rounded=0;" parent="1" source="aM9ryv3xv72pqoxQDRHE-6" target="X5tjyOHNMGWAjBXiOwTz-81" edge="1"><mxGeometry x="-0.2356" relative="1" as="geometry"><mxPoint x="190" y="1210" as="sourcePoint"/><Array as="points"><mxPoint x="405" y="1210"/><mxPoint x="300" y="1160"/></Array><mxPoint x="650" y="1210" as="targetPoint"/><mxPoint as="offset"/></mxGeometry></mxCell><mxCell id="X5tjyOHNMGWAjBXiOwTz-80" value="" style="html=1;verticalAlign=bottom;endArrow=open;dashed=1;endSize=8;edgeStyle=elbowEdgeStyle;elbow=vertical;curved=0;rounded=0;" parent="1" source="X5tjyOHNMGWAjBXiOwTz-81" target="aM9ryv3xv72pqoxQDRHE-6" edge="1"><mxGeometry relative="1" as="geometry"><mxPoint x="195" y="1220" as="targetPoint"/><Array as="points"><mxPoint x="410" y="1220"/><mxPoint x="280" y="1230"/><mxPoint x="625" y="1180"/></Array><mxPoint x="660" y="1220" as="sourcePoint"/></mxGeometry></mxCell><mxCell id="X5tjyOHNMGWAjBXiOwTz-84" value="1.13:addDriverSchedule(employeeId)" style="html=1;verticalAlign=bottom;endArrow=block;edgeStyle=elbowEdgeStyle;elbow=vertical;curved=0;rounded=0;" parent="1" source="aM9ryv3xv72pqoxQDRHE-6" target="X5tjyOHNMGWAjBXiOwTz-83" edge="1"><mxGeometry x="0.2041" relative="1" as="geometry"><mxPoint x="200" y="1300" as="sourcePoint"/><Array as="points"><mxPoint x="570" y="1330"/><mxPoint x="620" y="1320"/><mxPoint x="445" y="1300"/><mxPoint x="415" y="1260"/><mxPoint x="310" y="1210"/></Array><mxPoint x="650" y="1300" as="targetPoint"/><mxPoint as="offset"/></mxGeometry></mxCell><mxCell id="X5tjyOHNMGWAjBXiOwTz-85" value="" style="html=1;verticalAlign=bottom;endArrow=open;dashed=1;endSize=8;edgeStyle=elbowEdgeStyle;elbow=vertical;curved=0;rounded=0;" parent="1" source="X5tjyOHNMGWAjBXiOwTz-83" target="aM9ryv3xv72pqoxQDRHE-6" edge="1"><mxGeometry relative="1" as="geometry"><mxPoint x="195" y="1320" as="targetPoint"/><Array as="points"><mxPoint x="530" y="1340"/><mxPoint x="510" y="1330"/><mxPoint x="420" y="1320"/><mxPoint x="290" y="1330"/><mxPoint x="635" y="1280"/></Array><mxPoint x="660" y="1320" as="sourcePoint"/></mxGeometry></mxCell><mxCell id="X5tjyOHNMGWAjBXiOwTz-90" value="alt" style="shape=umlFrame;whiteSpace=wrap;html=1;pointerEvents=0;width=45;height=15;" parent="1" vertex="1"><mxGeometry x="12.5" y="140" width="977.5" height="1320" as="geometry"/></mxCell><mxCell id="X5tjyOHNMGWAjBXiOwTz-91" value="" style="html=1;verticalAlign=bottom;endArrow=open;dashed=1;endSize=8;edgeStyle=elbowEdgeStyle;elbow=vertical;curved=0;rounded=0;" parent="1" target="aM9ryv3xv72pqoxQDRHE-1" edge="1"><mxGeometry relative="1" as="geometry"><mxPoint x="185" y="160" as="targetPoint"/><Array as="points"><mxPoint x="230" y="150"/><mxPoint x="260" y="160"/><mxPoint x="240" y="170"/></Array><mxPoint x="305" y="160" as="sourcePoint"/></mxGeometry></mxCell><mxCell id="X5tjyOHNMGWAjBXiOwTz-92" value="&lt;div style=&quot;text-align: center;&quot;&gt;&lt;span style=&quot;background-color: rgb(255, 255, 255);&quot;&gt;&lt;font style=&quot;font-size: 8px;&quot;&gt;1.2: Return Error&lt;/font&gt;&lt;/span&gt;&lt;/div&gt;" style="text;whiteSpace=wrap;html=1;" parent="1" vertex="1"><mxGeometry x="70" y="150" width="70" height="20" as="geometry"/></mxCell><mxCell id="X5tjyOHNMGWAjBXiOwTz-93" value="" style="html=1;verticalAlign=bottom;endArrow=open;dashed=1;endSize=8;edgeStyle=elbowEdgeStyle;elbow=vertical;curved=0;rounded=0;" parent="1" target="aM9ryv3xv72pqoxQDRHE-1" edge="1"><mxGeometry relative="1" as="geometry"><mxPoint x="162.5" y="290" as="targetPoint"/><Array as="points"><mxPoint x="380" y="290"/><mxPoint x="260" y="280"/><mxPoint x="100" y="270"/><mxPoint x="90" y="280"/><mxPoint x="70" y="290"/><mxPoint x="307.5" y="360"/><mxPoint x="307.5" y="390"/></Array><mxPoint x="420" y="290" as="sourcePoint"/></mxGeometry></mxCell><mxCell id="X5tjyOHNMGWAjBXiOwTz-94" value="&lt;div style=&quot;text-align: center;&quot;&gt;&lt;span style=&quot;background-color: rgb(255, 255, 255);&quot;&gt;&lt;font style=&quot;font-size: 9px;&quot;&gt;1.5: Return Error&lt;/font&gt;&lt;/span&gt;&lt;/div&gt;" style="text;whiteSpace=wrap;html=1;" parent="1" vertex="1"><mxGeometry x="65" y="250" width="80" height="20" as="geometry"/></mxCell><mxCell id="X5tjyOHNMGWAjBXiOwTz-96" value="&lt;span style=&quot;color: rgb(0, 0, 0); font-family: Helvetica; font-style: normal; font-variant-ligatures: normal; font-variant-caps: normal; font-weight: 400; letter-spacing: normal; orphans: 2; text-align: center; text-indent: 0px; text-transform: none; widows: 2; word-spacing: 0px; -webkit-text-stroke-width: 0px; background-color: rgb(255, 255, 255); text-decoration-thickness: initial; text-decoration-style: initial; text-decoration-color: initial; float: none; display: inline !important;&quot;&gt;&lt;font style=&quot;font-size: 8px;&quot;&gt;[hasEmployee]&lt;/font&gt;&lt;br&gt;&lt;/span&gt;" style="text;whiteSpace=wrap;html=1;" parent="1" vertex="1"><mxGeometry x="283.75" y="130" width="60" height="20" as="geometry"/></mxCell><mxCell id="X5tjyOHNMGWAjBXiOwTz-99" value="&lt;span style=&quot;color: rgb(0, 0, 0); font-family: Helvetica; font-style: normal; font-variant-ligatures: normal; font-variant-caps: normal; font-weight: 400; letter-spacing: normal; orphans: 2; text-align: center; text-indent: 0px; text-transform: none; widows: 2; word-spacing: 0px; -webkit-text-stroke-width: 0px; background-color: rgb(255, 255, 255); text-decoration-thickness: initial; text-decoration-style: initial; text-decoration-color: initial; float: none; display: inline !important;&quot;&gt;&lt;span style=&quot;font-size: 8px;&quot;&gt;[type==&quot;driver&quot;]&lt;/span&gt;&lt;br&gt;&lt;/span&gt;" style="text;whiteSpace=wrap;html=1;" parent="1" vertex="1"><mxGeometry x="360" y="200" width="60" height="40" as="geometry"/></mxCell><mxCell id="X5tjyOHNMGWAjBXiOwTz-101" value="alt" style="shape=umlFrame;whiteSpace=wrap;html=1;pointerEvents=0;width=50;height=20;" parent="1" vertex="1"><mxGeometry x="12.5" y="270" width="967.5" height="1180" as="geometry"/></mxCell><mxCell id="X5tjyOHNMGWAjBXiOwTz-104" value="&lt;span style=&quot;color: rgb(0, 0, 0); font-family: Helvetica; font-style: normal; font-variant-ligatures: normal; font-variant-caps: normal; font-weight: 400; letter-spacing: normal; orphans: 2; text-align: center; text-indent: 0px; text-transform: none; widows: 2; word-spacing: 0px; -webkit-text-stroke-width: 0px; background-color: rgb(255, 255, 255); text-decoration-thickness: initial; text-decoration-style: initial; text-decoration-color: initial; float: none; display: inline !important;&quot;&gt;[hasShift]&lt;br&gt;&lt;/span&gt;" style="text;whiteSpace=wrap;html=1;" parent="1" vertex="1"><mxGeometry x="160" y="320" width="60" height="25" as="geometry"/></mxCell><mxCell id="X5tjyOHNMGWAjBXiOwTz-105" value="alt" style="shape=umlFrame;whiteSpace=wrap;html=1;pointerEvents=0;width=40;height=25;" parent="1" vertex="1"><mxGeometry x="30" y="945" width="930" height="485" as="geometry"/></mxCell><mxCell id="X5tjyOHNMGWAjBXiOwTz-106" value="" style="html=1;verticalAlign=bottom;endArrow=open;dashed=1;endSize=8;edgeStyle=elbowEdgeStyle;elbow=vertical;curved=0;rounded=0;" parent="1" source="aM9ryv3xv72pqoxQDRHE-6" target="aM9ryv3xv72pqoxQDRHE-1" edge="1"><mxGeometry relative="1" as="geometry"><mxPoint x="60" y="340" as="targetPoint"/><Array as="points"><mxPoint x="160" y="350"/><mxPoint x="140" y="370"/></Array><mxPoint x="160" y="360" as="sourcePoint"/></mxGeometry></mxCell><mxCell id="X5tjyOHNMGWAjBXiOwTz-107" value="&lt;div style=&quot;text-align: center;&quot;&gt;&lt;span style=&quot;background-color: rgb(255, 255, 255);&quot;&gt;&lt;font style=&quot;font-size: 9px;&quot;&gt;1.6: Return Error&lt;/font&gt;&lt;/span&gt;&lt;/div&gt;" style="text;whiteSpace=wrap;html=1;" parent="1" vertex="1"><mxGeometry x="67.5" y="330" width="80" height="20" as="geometry"/></mxCell><mxCell id="X5tjyOHNMGWAjBXiOwTz-112" value="alt" style="shape=umlFrame;whiteSpace=wrap;html=1;pointerEvents=0;width=40;height=25;" parent="1" vertex="1"><mxGeometry x="30" y="450" width="930" height="480" as="geometry"/></mxCell><mxCell id="X5tjyOHNMGWAjBXiOwTz-114" value="&lt;div style=&quot;text-align: center;&quot;&gt;&lt;span style=&quot;font-size: 11px; background-color: rgb(255, 255, 255);&quot;&gt;[hasEmployee]&lt;/span&gt;&lt;/div&gt;" style="text;whiteSpace=wrap;html=1;" parent="1" vertex="1"><mxGeometry x="170" y="965" width="72.5" height="20" as="geometry"/></mxCell><mxCell id="X5tjyOHNMGWAjBXiOwTz-116" value="" style="html=1;verticalAlign=bottom;endArrow=open;dashed=1;endSize=8;edgeStyle=elbowEdgeStyle;elbow=vertical;curved=0;rounded=0;" parent="1" source="aM9ryv3xv72pqoxQDRHE-6" target="aM9ryv3xv72pqoxQDRHE-1" edge="1"><mxGeometry relative="1" as="geometry"><mxPoint x="52.5" y="1000" as="targetPoint"/><Array as="points"><mxPoint x="140" y="1000"/><mxPoint x="110" y="1020"/><mxPoint x="127.5" y="1000"/></Array><mxPoint x="167.5" y="1000" as="sourcePoint"/></mxGeometry></mxCell><mxCell id="X5tjyOHNMGWAjBXiOwTz-117" value="&lt;div style=&quot;text-align: center;&quot;&gt;&lt;span style=&quot;font-size: 11px; background-color: rgb(255, 255, 255);&quot;&gt;1.10:Return Error&lt;/span&gt;&lt;/div&gt;" style="text;whiteSpace=wrap;html=1;" parent="1" vertex="1"><mxGeometry x="77.5" y="965" width="70" height="35" as="geometry"/></mxCell><mxCell id="X5tjyOHNMGWAjBXiOwTz-120" value="&lt;div style=&quot;text-align: center;&quot;&gt;&lt;span style=&quot;font-size: 11px; background-color: rgb(255, 255, 255);&quot;&gt;[employeeScheduled]&lt;/span&gt;&lt;/div&gt;" style="text;whiteSpace=wrap;html=1;" parent="1" vertex="1"><mxGeometry x="170" y="1070" width="67.5" height="20" as="geometry"/></mxCell><mxCell id="X5tjyOHNMGWAjBXiOwTz-121" value="" style="html=1;verticalAlign=bottom;endArrow=open;dashed=1;endSize=8;edgeStyle=elbowEdgeStyle;elbow=vertical;curved=0;rounded=0;" parent="1" source="aM9ryv3xv72pqoxQDRHE-6" target="aM9ryv3xv72pqoxQDRHE-1" edge="1"><mxGeometry relative="1" as="geometry"><mxPoint x="-40" y="1104.5" as="targetPoint"/><Array as="points"><mxPoint x="120" y="1110"/><mxPoint x="175" y="1104.5"/><mxPoint x="45" y="1114.5"/><mxPoint x="390" y="1064.5"/></Array><mxPoint x="160" y="1104.5" as="sourcePoint"/></mxGeometry></mxCell><mxCell id="X5tjyOHNMGWAjBXiOwTz-124" value="&lt;div style=&quot;text-align: center;&quot;&gt;&lt;span style=&quot;font-size: 11px; background-color: rgb(255, 255, 255);&quot;&gt;&amp;nbsp;[driverCount= schedules]&lt;/span&gt;&lt;/div&gt;" style="text;whiteSpace=wrap;html=1;" parent="1" vertex="1"><mxGeometry x="165" y="1240" width="67.5" height="40" as="geometry"/></mxCell><mxCell id="X5tjyOHNMGWAjBXiOwTz-125" value="" style="html=1;verticalAlign=bottom;endArrow=open;dashed=1;endSize=8;edgeStyle=elbowEdgeStyle;elbow=vertical;curved=0;rounded=0;" parent="1" source="aM9ryv3xv72pqoxQDRHE-6" target="aM9ryv3xv72pqoxQDRHE-1" edge="1"><mxGeometry relative="1" as="geometry"><mxPoint x="70" y="1280.5" as="targetPoint"/><Array as="points"><mxPoint x="120" y="1290"/><mxPoint x="190" y="1280"/><mxPoint x="60" y="1290"/><mxPoint x="405" y="1240"/></Array><mxPoint x="175" y="1280" as="sourcePoint"/></mxGeometry></mxCell><mxCell id="X5tjyOHNMGWAjBXiOwTz-126" value="alt" style="shape=umlFrame;whiteSpace=wrap;html=1;pointerEvents=0;width=40;height=25;" parent="1" vertex="1"><mxGeometry x="40" y="1070" width="910" height="350" as="geometry"/></mxCell><mxCell id="X5tjyOHNMGWAjBXiOwTz-127" value="alt" style="shape=umlFrame;whiteSpace=wrap;html=1;pointerEvents=0;width=28;height=20;" parent="1" vertex="1"><mxGeometry x="46.25" y="1240" width="893.75" height="170" as="geometry"/></mxCell><mxCell id="X5tjyOHNMGWAjBXiOwTz-128" value="&lt;div style=&quot;text-align: center;&quot;&gt;&lt;span style=&quot;font-size: 11px; background-color: rgb(255, 255, 255);&quot;&gt;1.12: Return Error&lt;/span&gt;&lt;/div&gt;" style="text;whiteSpace=wrap;html=1;" parent="1" vertex="1"><mxGeometry x="75" y="1250" width="70" height="40" as="geometry"/></mxCell><mxCell id="ba8maUs_KR-QxSfLJsmI-4" value="&lt;span style=&quot;color: rgb(0, 0, 0); font-family: Helvetica; font-size: 11px; font-style: normal; font-variant-ligatures: normal; font-variant-caps: normal; font-weight: 400; letter-spacing: normal; orphans: 2; text-align: center; text-indent: 0px; text-transform: none; widows: 2; word-spacing: 0px; -webkit-text-stroke-width: 0px; background-color: rgb(255, 255, 255); text-decoration-thickness: initial; text-decoration-style: initial; text-decoration-color: initial; float: none; display: inline !important;&quot;&gt;1.9: available&lt;br&gt;EmployeesId(shiftId)&lt;/span&gt;" style="text;whiteSpace=wrap;html=1;" parent="1" vertex="1"><mxGeometry x="232.5" y="410" width="110" height="20" as="geometry"/></mxCell><mxCell id="Emh7KEeTjjyPmVbG4QdI-1" value="DALFacade" style="shape=umlLifeline;perimeter=lifelinePerimeter;whiteSpace=wrap;html=1;container=0;dropTarget=0;collapsible=0;recursiveResize=0;outlineConnect=0;portConstraint=eastwest;newEdgeStyle={&quot;edgeStyle&quot;:&quot;elbowEdgeStyle&quot;,&quot;elbow&quot;:&quot;vertical&quot;,&quot;curved&quot;:0,&quot;rounded&quot;:0};fillColor=#f8cecc;strokeColor=#b85450;" parent="1" vertex="1"><mxGeometry x="740" y="40" width="100" height="1450" as="geometry"/></mxCell><mxCell id="Emh7KEeTjjyPmVbG4QdI-5" value="" style="html=1;points=[];perimeter=orthogonalPerimeter;outlineConnect=0;targetShapes=umlLifeline;portConstraint=eastwest;newEdgeStyle={&quot;edgeStyle&quot;:&quot;elbowEdgeStyle&quot;,&quot;elbow&quot;:&quot;vertical&quot;,&quot;curved&quot;:0,&quot;rounded&quot;:0};fillColor=#f8cecc;strokeColor=#b85450;" parent="Emh7KEeTjjyPmVbG4QdI-1" vertex="1"><mxGeometry x="45" y="1310" width="10" height="40" as="geometry"/></mxCell><mxCell id="Emh7KEeTjjyPmVbG4QdI-11" value="1.14:&amp;nbsp;insertDriverSchedule(Driver ds,Driver d)" style="html=1;verticalAlign=bottom;endArrow=block;edgeStyle=elbowEdgeStyle;elbow=vertical;curved=0;rounded=0;" parent="1" source="aM9ryv3xv72pqoxQDRHE-6" target="Emh7KEeTjjyPmVbG4QdI-5" edge="1"><mxGeometry x="0.2041" relative="1" as="geometry"><mxPoint x="190" y="1360" as="sourcePoint"/><Array as="points"><mxPoint x="530" y="1370"/><mxPoint x="445" y="1360"/><mxPoint x="415" y="1320"/><mxPoint x="310" y="1270"/></Array><mxPoint x="665" y="1360" as="targetPoint"/><mxPoint as="offset"/></mxGeometry></mxCell><mxCell id="Emh7KEeTjjyPmVbG4QdI-12" value="" style="html=1;verticalAlign=bottom;endArrow=open;dashed=1;endSize=8;edgeStyle=elbowEdgeStyle;elbow=vertical;curved=0;rounded=0;" parent="1" target="aM9ryv3xv72pqoxQDRHE-6" edge="1"><mxGeometry relative="1" as="geometry"><mxPoint x="300" y="1380" as="targetPoint"/><Array as="points"><mxPoint x="535" y="1380"/><mxPoint x="405" y="1390"/><mxPoint x="750" y="1340"/></Array><mxPoint x="780" y="1380" as="sourcePoint"/></mxGeometry></mxCell><mxCell id="imGs1_A1VuIzdSmPK74q-5" value="&lt;span style=&quot;color: rgb(0, 0, 0); font-family: Helvetica; font-style: normal; font-variant-ligatures: normal; font-variant-caps: normal; font-weight: 400; letter-spacing: normal; orphans: 2; text-align: center; text-indent: 0px; text-transform: none; widows: 2; word-spacing: 0px; -webkit-text-stroke-width: 0px; background-color: rgb(255, 255, 255); text-decoration-thickness: initial; text-decoration-style: initial; text-decoration-color: initial; float: none; display: inline !important;&quot;&gt;[hasShift]&lt;br&gt;&lt;/span&gt;" style="text;whiteSpace=wrap;html=1;" parent="1" vertex="1"><mxGeometry x="160" y="447.5" width="60" height="25" as="geometry"/></mxCell><mxCell id="imGs1_A1VuIzdSmPK74q-6" value="&lt;div style=&quot;text-align: center;&quot;&gt;&lt;span style=&quot;background-color: rgb(255, 255, 255);&quot;&gt;&lt;font style=&quot;font-size: 10px;&quot;&gt;1.9.3: employees map&lt;/font&gt;&lt;/span&gt;&lt;/div&gt;" style="text;whiteSpace=wrap;html=1;" parent="1" vertex="1"><mxGeometry x="202.5" y="550" width="115" height="20" as="geometry"/></mxCell><mxCell id="imGs1_A1VuIzdSmPK74q-8" value="1.8.10:isHRManager" style="text;whiteSpace=wrap;html=1;" parent="1" vertex="1"><mxGeometry x="300" y="880" width="60" height="20" as="geometry"/></mxCell><mxCell id="imGs1_A1VuIzdSmPK74q-9" value="&lt;div style=&quot;text-align: center;&quot;&gt;&lt;span style=&quot;font-size: 11px; background-color: rgb(255, 255, 255);&quot;&gt;1.11: drivers' schedules map&lt;/span&gt;&lt;/div&gt;" style="text;whiteSpace=wrap;html=1;" parent="1" vertex="1"><mxGeometry x="400" y="1060" width="160" height="20" as="geometry"/></mxCell><mxCell id="imGs1_A1VuIzdSmPK74q-11" value="&lt;div style=&quot;text-align: center;&quot;&gt;&lt;span style=&quot;font-size: 11px; background-color: rgb(255, 255, 255);&quot;&gt;1.14: drivers' count on schedule&lt;/span&gt;&lt;/div&gt;" style="text;whiteSpace=wrap;html=1;" parent="1" vertex="1"><mxGeometry x="450" y="1177.5" width="160" height="20" as="geometry"/></mxCell><mxCell id="imGs1_A1VuIzdSmPK74q-13" value="&lt;div style=&quot;text-align: center;&quot;&gt;&lt;span style=&quot;font-size: 11px; background-color: rgb(255, 255, 255);&quot;&gt;1.11: drivers' schedules map&lt;/span&gt;&lt;/div&gt;" style="text;whiteSpace=wrap;html=1;" parent="1" vertex="1"><mxGeometry x="397.5" y="1220" width="160" height="20" as="geometry"/></mxCell><mxCell id="X5tjyOHNMGWAjBXiOwTz-47" value="" style="html=1;verticalAlign=bottom;endArrow=open;dashed=1;endSize=8;edgeStyle=elbowEdgeStyle;elbow=vertical;curved=0;rounded=0;" parent="1" source="X5tjyOHNMGWAjBXiOwTz-46" target="X5tjyOHNMGWAjBXiOwTz-14" edge="1"><mxGeometry relative="1" as="geometry"><mxPoint x="200" y="620" as="targetPoint"/><Array as="points"><mxPoint x="250" y="620"/><mxPoint x="310" y="575"/></Array><mxPoint x="300" y="575" as="sourcePoint"/></mxGeometry></mxCell><mxCell id="Raydezne4y7aKg1OxKBF-2" value="" style="endArrow=none;dashed=1;html=1;rounded=0;exitX=0.003;exitY=0.027;exitDx=0;exitDy=0;exitPerimeter=0;entryX=0.999;entryY=0.024;entryDx=0;entryDy=0;entryPerimeter=0;" parent="1" source="X5tjyOHNMGWAjBXiOwTz-90" target="X5tjyOHNMGWAjBXiOwTz-90" edge="1"><mxGeometry width="50" height="50" relative="1" as="geometry"><mxPoint x="390" y="270" as="sourcePoint"/><mxPoint x="440" y="220" as="targetPoint"/></mxGeometry></mxCell><mxCell id="Raydezne4y7aKg1OxKBF-3" value="&lt;span style=&quot;color: rgb(0, 0, 0); font-family: Helvetica; font-style: normal; font-variant-ligatures: normal; font-variant-caps: normal; font-weight: 400; letter-spacing: normal; orphans: 2; text-align: center; text-indent: 0px; text-transform: none; widows: 2; word-spacing: 0px; -webkit-text-stroke-width: 0px; background-color: rgb(255, 255, 255); text-decoration-thickness: initial; text-decoration-style: initial; text-decoration-color: initial; float: none; display: inline !important;&quot;&gt;&lt;font style=&quot;font-size: 8px;&quot;&gt;[else]&lt;/font&gt;&lt;br&gt;&lt;/span&gt;" style="text;whiteSpace=wrap;html=1;" parent="1" vertex="1"><mxGeometry x="300" y="160" width="60" height="20" as="geometry"/></mxCell><mxCell id="Raydezne4y7aKg1OxKBF-4" value="" style="html=1;verticalAlign=bottom;endArrow=open;dashed=1;endSize=8;edgeStyle=elbowEdgeStyle;elbow=vertical;curved=0;rounded=0;" parent="1" edge="1"><mxGeometry relative="1" as="geometry"><mxPoint x="185.25" y="190" as="targetPoint"/><Array as="points"><mxPoint x="277.25" y="190"/><mxPoint x="247.25" y="180"/><mxPoint x="247.25" y="170"/></Array><mxPoint x="302.25" y="190" as="sourcePoint"/></mxGeometry></mxCell><mxCell id="Raydezne4y7aKg1OxKBF-5" value="&lt;span style=&quot;color: rgb(0, 0, 0); font-family: Helvetica; font-style: normal; font-variant-ligatures: normal; font-variant-caps: normal; font-weight: 400; letter-spacing: normal; orphans: 2; text-align: center; text-indent: 0px; text-transform: none; widows: 2; word-spacing: 0px; -webkit-text-stroke-width: 0px; background-color: rgb(255, 255, 255); text-decoration-thickness: initial; text-decoration-style: initial; text-decoration-color: initial; float: none; display: inline !important;&quot;&gt;&lt;span style=&quot;font-size: 8px;&quot;&gt;[else]&lt;/span&gt;&lt;br&gt;&lt;/span&gt;" style="text;whiteSpace=wrap;html=1;" parent="1" vertex="1"><mxGeometry x="415" y="280" width="60" height="40" as="geometry"/></mxCell><mxCell id="Raydezne4y7aKg1OxKBF-6" value="" style="html=1;verticalAlign=bottom;endArrow=open;dashed=1;endSize=8;edgeStyle=elbowEdgeStyle;elbow=vertical;curved=0;rounded=0;" parent="1" edge="1"><mxGeometry relative="1" as="geometry"><mxPoint x="186.5" y="300.8" as="targetPoint"/><Array as="points"><mxPoint x="390" y="300"/><mxPoint x="360" y="290"/><mxPoint x="360" y="280"/></Array><mxPoint x="415" y="300" as="sourcePoint"/></mxGeometry></mxCell><mxCell id="Raydezne4y7aKg1OxKBF-7" value="alt" style="shape=umlFrame;whiteSpace=wrap;html=1;pointerEvents=0;width=40;height=25;" parent="1" vertex="1"><mxGeometry x="21.25" y="320" width="948.75" height="1120" as="geometry"/></mxCell><mxCell id="Raydezne4y7aKg1OxKBF-10" value="" style="endArrow=none;dashed=1;html=1;rounded=0;exitX=0.003;exitY=0.027;exitDx=0;exitDy=0;exitPerimeter=0;entryX=1;entryY=0.036;entryDx=0;entryDy=0;entryPerimeter=0;" parent="1" target="Raydezne4y7aKg1OxKBF-7" edge="1"><mxGeometry width="50" height="50" relative="1" as="geometry"><mxPoint x="21.25" y="364" as="sourcePoint"/><mxPoint x="820" y="360" as="targetPoint"/></mxGeometry></mxCell><mxCell id="Raydezne4y7aKg1OxKBF-11" value="&lt;span style=&quot;color: rgb(0, 0, 0); font-family: Helvetica; font-style: normal; font-variant-ligatures: normal; font-variant-caps: normal; font-weight: 400; letter-spacing: normal; orphans: 2; text-align: center; text-indent: 0px; text-transform: none; widows: 2; word-spacing: 0px; -webkit-text-stroke-width: 0px; background-color: rgb(255, 255, 255); text-decoration-thickness: initial; text-decoration-style: initial; text-decoration-color: initial; float: none; display: inline !important;&quot;&gt;[else]&lt;br&gt;&lt;/span&gt;" style="text;whiteSpace=wrap;html=1;" parent="1" vertex="1"><mxGeometry x="167.5" y="350" width="60" height="25" as="geometry"/></mxCell><mxCell id="Raydezne4y7aKg1OxKBF-13" value="&lt;div style=&quot;text-align: center;&quot;&gt;&lt;span style=&quot;background-color: rgb(255, 255, 255);&quot;&gt;&lt;font style=&quot;font-size: 9px;&quot;&gt;1.6: Return Error&lt;/font&gt;&lt;/span&gt;&lt;/div&gt;" style="text;whiteSpace=wrap;html=1;" parent="1" vertex="1"><mxGeometry x="70" y="470" width="80" height="20" as="geometry"/></mxCell><mxCell id="Raydezne4y7aKg1OxKBF-14" value="" style="html=1;verticalAlign=bottom;endArrow=open;dashed=1;endSize=8;edgeStyle=elbowEdgeStyle;elbow=vertical;curved=0;rounded=0;" parent="1" edge="1"><mxGeometry relative="1" as="geometry"><mxPoint x="52.5" y="490" as="targetPoint"/><Array as="points"><mxPoint x="157.5" y="490"/><mxPoint x="137.5" y="510"/></Array><mxPoint x="170" y="490" as="sourcePoint"/></mxGeometry></mxCell><mxCell id="Raydezne4y7aKg1OxKBF-15" value="" style="endArrow=none;dashed=1;html=1;rounded=0;exitX=0.003;exitY=0.027;exitDx=0;exitDy=0;exitPerimeter=0;" parent="1" edge="1"><mxGeometry width="50" height="50" relative="1" as="geometry"><mxPoint x="31.25" y="504" as="sourcePoint"/><mxPoint x="960" y="504" as="targetPoint"/></mxGeometry></mxCell><mxCell id="Raydezne4y7aKg1OxKBF-16" value="&lt;span style=&quot;color: rgb(0, 0, 0); font-family: Helvetica; font-style: normal; font-variant-ligatures: normal; font-variant-caps: normal; font-weight: 400; letter-spacing: normal; orphans: 2; text-align: center; text-indent: 0px; text-transform: none; widows: 2; word-spacing: 0px; -webkit-text-stroke-width: 0px; background-color: rgb(255, 255, 255); text-decoration-thickness: initial; text-decoration-style: initial; text-decoration-color: initial; float: none; display: inline !important;&quot;&gt;[else]&lt;br&gt;&lt;/span&gt;" style="text;whiteSpace=wrap;html=1;" parent="1" vertex="1"><mxGeometry x="167.5" y="500" width="60" height="25" as="geometry"/></mxCell><mxCell id="Raydezne4y7aKg1OxKBF-18" value="" style="endArrow=none;dashed=1;html=1;rounded=0;exitX=0.003;exitY=0.027;exitDx=0;exitDy=0;exitPerimeter=0;entryX=1;entryY=0.132;entryDx=0;entryDy=0;entryPerimeter=0;" parent="1" target="X5tjyOHNMGWAjBXiOwTz-105" edge="1"><mxGeometry width="50" height="50" relative="1" as="geometry"><mxPoint x="30" y="1014" as="sourcePoint"/><mxPoint x="809" y="1010" as="targetPoint"/></mxGeometry></mxCell><mxCell id="Raydezne4y7aKg1OxKBF-19" value="&lt;div style=&quot;text-align: center;&quot;&gt;&lt;span style=&quot;font-size: 11px; background-color: rgb(255, 255, 255);&quot;&gt;[else]&lt;/span&gt;&lt;/div&gt;" style="text;whiteSpace=wrap;html=1;" parent="1" vertex="1"><mxGeometry x="170" y="1010" width="72.5" height="20" as="geometry"/></mxCell><mxCell id="X5tjyOHNMGWAjBXiOwTz-122" value="&lt;div style=&quot;text-align: center;&quot;&gt;&lt;span style=&quot;font-size: 11px; background-color: rgb(255, 255, 255);&quot;&gt;1.12: Return Error&lt;/span&gt;&lt;/div&gt;" style="text;whiteSpace=wrap;html=1;" parent="1" vertex="1"><mxGeometry x="70" y="1090" width="100" height="20" as="geometry"/></mxCell><mxCell id="Raydezne4y7aKg1OxKBF-23" value="" style="endArrow=none;dashed=1;html=1;rounded=0;entryX=1;entryY=0.189;entryDx=0;entryDy=0;entryPerimeter=0;" parent="1" target="X5tjyOHNMGWAjBXiOwTz-126" edge="1"><mxGeometry width="50" height="50" relative="1" as="geometry"><mxPoint x="56" y="1136" as="sourcePoint"/><mxPoint x="790" y="1140" as="targetPoint"/><Array as="points"><mxPoint x="820" y="1136"/></Array></mxGeometry></mxCell><mxCell id="Raydezne4y7aKg1OxKBF-24" value="" style="endArrow=none;dashed=1;html=1;rounded=0;exitX=0.003;exitY=0.027;exitDx=0;exitDy=0;exitPerimeter=0;entryX=0.999;entryY=0.349;entryDx=0;entryDy=0;entryPerimeter=0;" parent="1" target="X5tjyOHNMGWAjBXiOwTz-127" edge="1"><mxGeometry width="50" height="50" relative="1" as="geometry"><mxPoint x="54" y="1304" as="sourcePoint"/><mxPoint x="788.5" y="1300" as="targetPoint"/><Array as="points"><mxPoint x="850" y="1300"/></Array></mxGeometry></mxCell><mxCell id="Raydezne4y7aKg1OxKBF-25" value="&lt;div style=&quot;text-align: center;&quot;&gt;&lt;span style=&quot;font-size: 11px; background-color: rgb(255, 255, 255);&quot;&gt;[else]&lt;/span&gt;&lt;/div&gt;" style="text;whiteSpace=wrap;html=1;" parent="1" vertex="1"><mxGeometry x="170" y="1300" width="67.5" height="40" as="geometry"/></mxCell><mxCell id="L32Zy_1VSJtAy7HOwuwF-1" value="DriverSchedule&lt;br&gt;DAO" style="shape=umlLifeline;perimeter=lifelinePerimeter;whiteSpace=wrap;html=1;container=0;dropTarget=0;collapsible=0;recursiveResize=0;outlineConnect=0;portConstraint=eastwest;newEdgeStyle={&quot;edgeStyle&quot;:&quot;elbowEdgeStyle&quot;,&quot;elbow&quot;:&quot;vertical&quot;,&quot;curved&quot;:0,&quot;rounded&quot;:0};fillColor=#f8cecc;strokeColor=#b85450;" parent="1" vertex="1"><mxGeometry x="860" y="40" width="100" height="1450" as="geometry"/></mxCell><mxCell id="L32Zy_1VSJtAy7HOwuwF-2" value="" style="html=1;points=[];perimeter=orthogonalPerimeter;outlineConnect=0;targetShapes=umlLifeline;portConstraint=eastwest;newEdgeStyle={&quot;edgeStyle&quot;:&quot;elbowEdgeStyle&quot;,&quot;elbow&quot;:&quot;vertical&quot;,&quot;curved&quot;:0,&quot;rounded&quot;:0};fillColor=#f8cecc;strokeColor=#b85450;" parent="L32Zy_1VSJtAy7HOwuwF-1" vertex="1"><mxGeometry x="45" y="1310" width="10" height="40" as="geometry"/></mxCell><mxCell id="L32Zy_1VSJtAy7HOwuwF-3" value="1.15: insert&lt;br&gt;(_employeeId,_shiftId)" style="html=1;verticalAlign=bottom;endArrow=block;edgeStyle=elbowEdgeStyle;elbow=vertical;curved=0;rounded=0;fillColor=#f8cecc;strokeColor=#b85450;" parent="1" source="Emh7KEeTjjyPmVbG4QdI-5" target="L32Zy_1VSJtAy7HOwuwF-2" edge="1"><mxGeometry relative="1" as="geometry"><mxPoint x="300" y="1370" as="sourcePoint"/><Array as="points"><mxPoint x="830" y="1360"/><mxPoint x="642" y="1370"/><mxPoint x="557" y="1360"/><mxPoint x="527" y="1320"/><mxPoint x="422" y="1270"/></Array><mxPoint x="897" y="1370" as="targetPoint"/><mxPoint as="offset"/></mxGeometry></mxCell><mxCell id="L32Zy_1VSJtAy7HOwuwF-4" value="" style="html=1;verticalAlign=bottom;endArrow=open;dashed=1;endSize=8;edgeStyle=elbowEdgeStyle;elbow=vertical;curved=0;rounded=0;fillColor=#f8cecc;strokeColor=#b85450;" parent="1" source="L32Zy_1VSJtAy7HOwuwF-2" target="Emh7KEeTjjyPmVbG4QdI-5" edge="1"><mxGeometry relative="1" as="geometry"><mxPoint x="870" y="1390" as="targetPoint"/><Array as="points"><mxPoint x="860" y="1380"/><mxPoint x="890" y="1390"/><mxPoint x="874.5" y="1350"/></Array><mxPoint x="904.5" y="1390" as="sourcePoint"/></mxGeometry></mxCell></root></mxGraphModel></diagram></mxfile>